<mxfile host="app.diagrams.net" modified="2023-06-11T13:17:04.455Z" agent="Mozilla/5.0 (Windows NT 10.0; Win64; x64) AppleWebKit/537.36 (KHTML, like Gecko) Chrome/114.0.0.0 Safari/537.36" etag="jV2mCaw8QthKZSMs_MQA" version="21.3.3" type="github">
  <diagram id="Igj2lVOxJkAfJ5udxoiY" name="Page-2">
    <mxGraphModel dx="1444" dy="840" grid="1" gridSize="10" guides="1" tooltips="1" connect="1" arrows="1" fold="1" page="1" pageScale="1" pageWidth="827" pageHeight="1169" math="0" shadow="0">
      <root>
        <mxCell id="0" />
        <mxCell id="1" parent="0" />
        <mxCell id="-aIehJj_cpJDDFJuIASW-1" value="Autentificare" style="ellipse;whiteSpace=wrap;html=1;aspect=fixed;" vertex="1" parent="1">
          <mxGeometry x="747" y="50" width="80" height="80" as="geometry" />
        </mxCell>
        <mxCell id="-aIehJj_cpJDDFJuIASW-2" value="Utilizator&lt;br&gt;" style="html=1;whiteSpace=wrap;" vertex="1" parent="1">
          <mxGeometry x="60" y="480" width="110" height="50" as="geometry" />
        </mxCell>
        <mxCell id="-aIehJj_cpJDDFJuIASW-3" value="Administrator&lt;br&gt;" style="html=1;whiteSpace=wrap;" vertex="1" parent="1">
          <mxGeometry x="1460" y="495" width="110" height="50" as="geometry" />
        </mxCell>
        <mxCell id="-aIehJj_cpJDDFJuIASW-4" value="Vizualizare adrese&lt;br&gt;" style="ellipse;whiteSpace=wrap;html=1;aspect=fixed;" vertex="1" parent="1">
          <mxGeometry x="520" y="730" width="80" height="80" as="geometry" />
        </mxCell>
        <mxCell id="-aIehJj_cpJDDFJuIASW-5" value="Vizualizare categorii" style="ellipse;whiteSpace=wrap;html=1;aspect=fixed;" vertex="1" parent="1">
          <mxGeometry x="540" y="170" width="80" height="80" as="geometry" />
        </mxCell>
        <mxCell id="-aIehJj_cpJDDFJuIASW-6" value="Vizualizare clinici" style="ellipse;whiteSpace=wrap;html=1;aspect=fixed;" vertex="1" parent="1">
          <mxGeometry x="720" y="160" width="80" height="80" as="geometry" />
        </mxCell>
        <mxCell id="-aIehJj_cpJDDFJuIASW-7" value="Vizualizare pagina medici" style="ellipse;whiteSpace=wrap;html=1;aspect=fixed;" vertex="1" parent="1">
          <mxGeometry x="360" y="590" width="80" height="80" as="geometry" />
        </mxCell>
        <mxCell id="-aIehJj_cpJDDFJuIASW-8" value="Adauga o programare" style="ellipse;whiteSpace=wrap;html=1;aspect=fixed;" vertex="1" parent="1">
          <mxGeometry x="350" y="790" width="80" height="80" as="geometry" />
        </mxCell>
        <mxCell id="-aIehJj_cpJDDFJuIASW-9" value="Pune o întrebare" style="ellipse;whiteSpace=wrap;html=1;aspect=fixed;" vertex="1" parent="1">
          <mxGeometry x="540" y="600" width="80" height="80" as="geometry" />
        </mxCell>
        <mxCell id="-aIehJj_cpJDDFJuIASW-11" value="Modifica/Sterge&amp;nbsp;&lt;br&gt;progrmare" style="ellipse;whiteSpace=wrap;html=1;aspect=fixed;" vertex="1" parent="1">
          <mxGeometry x="700" y="680" width="100" height="100" as="geometry" />
        </mxCell>
        <mxCell id="-aIehJj_cpJDDFJuIASW-12" value="Adauga/&lt;br&gt;Modifica/&lt;br&gt;Sterge clinici" style="ellipse;whiteSpace=wrap;html=1;aspect=fixed;" vertex="1" parent="1">
          <mxGeometry x="1156" y="120" width="80" height="80" as="geometry" />
        </mxCell>
        <mxCell id="-aIehJj_cpJDDFJuIASW-13" value="Adauga/sterge/&lt;br&gt;modifica medici" style="ellipse;whiteSpace=wrap;html=1;aspect=fixed;" vertex="1" parent="1">
          <mxGeometry x="860" y="330" width="90" height="90" as="geometry" />
        </mxCell>
        <mxCell id="-aIehJj_cpJDDFJuIASW-14" value="Adauga/Sterge&lt;br&gt;Modifica categorii" style="ellipse;whiteSpace=wrap;html=1;aspect=fixed;" vertex="1" parent="1">
          <mxGeometry x="930" y="180" width="90" height="90" as="geometry" />
        </mxCell>
        <mxCell id="-aIehJj_cpJDDFJuIASW-15" value="Vizualizeaza si modifica membrii" style="ellipse;whiteSpace=wrap;html=1;aspect=fixed;" vertex="1" parent="1">
          <mxGeometry x="1250" y="450" width="80" height="80" as="geometry" />
        </mxCell>
        <mxCell id="-aIehJj_cpJDDFJuIASW-16" value="Vizualizare mesaje contact" style="ellipse;whiteSpace=wrap;html=1;aspect=fixed;" vertex="1" parent="1">
          <mxGeometry x="1241" y="680" width="80" height="80" as="geometry" />
        </mxCell>
        <mxCell id="-aIehJj_cpJDDFJuIASW-18" value="Adauga/Sterge&lt;br style=&quot;border-color: var(--border-color);&quot;&gt;Modifica adresa" style="ellipse;whiteSpace=wrap;html=1;aspect=fixed;" vertex="1" parent="1">
          <mxGeometry x="920" y="650" width="80" height="80" as="geometry" />
        </mxCell>
        <mxCell id="-aIehJj_cpJDDFJuIASW-19" value="Adauga/Sterge&lt;br style=&quot;border-color: var(--border-color);&quot;&gt;Modifica programari" style="ellipse;whiteSpace=wrap;html=1;" vertex="1" parent="1">
          <mxGeometry x="990" y="770" width="80" height="80" as="geometry" />
        </mxCell>
        <mxCell id="-aIehJj_cpJDDFJuIASW-21" value="" style="curved=1;endArrow=classic;html=1;rounded=0;exitX=0.5;exitY=0;exitDx=0;exitDy=0;entryX=0;entryY=0;entryDx=0;entryDy=0;" edge="1" parent="1" source="-aIehJj_cpJDDFJuIASW-2" target="-aIehJj_cpJDDFJuIASW-1">
          <mxGeometry width="50" height="50" relative="1" as="geometry">
            <mxPoint x="710" y="340" as="sourcePoint" />
            <mxPoint x="760" y="290" as="targetPoint" />
            <Array as="points">
              <mxPoint x="190" y="270" />
              <mxPoint x="310" y="150" />
              <mxPoint x="450" y="90" />
              <mxPoint x="580" y="60" />
            </Array>
          </mxGeometry>
        </mxCell>
        <mxCell id="-aIehJj_cpJDDFJuIASW-22" value="Intrucere adresă de mail și parolă" style="text;html=1;strokeColor=none;fillColor=none;align=center;verticalAlign=middle;whiteSpace=wrap;rounded=0;" vertex="1" parent="1">
          <mxGeometry x="220" y="120" width="100" height="30" as="geometry" />
        </mxCell>
        <mxCell id="-aIehJj_cpJDDFJuIASW-23" value="" style="curved=1;endArrow=classic;html=1;rounded=0;exitX=0.5;exitY=0;exitDx=0;exitDy=0;entryX=1;entryY=0;entryDx=0;entryDy=0;" edge="1" parent="1" source="-aIehJj_cpJDDFJuIASW-3" target="-aIehJj_cpJDDFJuIASW-1">
          <mxGeometry width="50" height="50" relative="1" as="geometry">
            <mxPoint x="710" y="340" as="sourcePoint" />
            <mxPoint x="760" y="290" as="targetPoint" />
            <Array as="points">
              <mxPoint x="1515" y="400" />
              <mxPoint x="1420" y="190" />
              <mxPoint x="1220" y="50" />
            </Array>
          </mxGeometry>
        </mxCell>
        <mxCell id="-aIehJj_cpJDDFJuIASW-24" value="Intrucere adresă de mail și parolă" style="text;html=1;strokeColor=none;fillColor=none;align=center;verticalAlign=middle;whiteSpace=wrap;rounded=0;" vertex="1" parent="1">
          <mxGeometry x="1370" y="130" width="110" height="30" as="geometry" />
        </mxCell>
        <mxCell id="-aIehJj_cpJDDFJuIASW-26" value="" style="curved=1;endArrow=classic;html=1;rounded=0;exitX=1;exitY=0.5;exitDx=0;exitDy=0;entryX=0;entryY=1;entryDx=0;entryDy=0;" edge="1" parent="1" source="-aIehJj_cpJDDFJuIASW-2" target="-aIehJj_cpJDDFJuIASW-5">
          <mxGeometry width="50" height="50" relative="1" as="geometry">
            <mxPoint x="750" y="520" as="sourcePoint" />
            <mxPoint x="800" y="470" as="targetPoint" />
            <Array as="points">
              <mxPoint x="310" y="380" />
            </Array>
          </mxGeometry>
        </mxCell>
        <mxCell id="-aIehJj_cpJDDFJuIASW-27" value="" style="curved=1;endArrow=classic;html=1;rounded=0;exitX=1;exitY=0.75;exitDx=0;exitDy=0;entryX=0.5;entryY=0;entryDx=0;entryDy=0;" edge="1" parent="1" source="-aIehJj_cpJDDFJuIASW-2" target="-aIehJj_cpJDDFJuIASW-7">
          <mxGeometry width="50" height="50" relative="1" as="geometry">
            <mxPoint x="750" y="520" as="sourcePoint" />
            <mxPoint x="800" y="470" as="targetPoint" />
            <Array as="points">
              <mxPoint x="270" y="470" />
              <mxPoint x="300" y="590" />
            </Array>
          </mxGeometry>
        </mxCell>
        <mxCell id="-aIehJj_cpJDDFJuIASW-28" value="Accesează pagină contact" style="ellipse;whiteSpace=wrap;html=1;aspect=fixed;" vertex="1" parent="1">
          <mxGeometry x="610" y="350" width="80" height="80" as="geometry" />
        </mxCell>
        <mxCell id="-aIehJj_cpJDDFJuIASW-29" value="" style="curved=1;endArrow=classic;html=1;rounded=0;exitX=1;exitY=0.75;exitDx=0;exitDy=0;entryX=0;entryY=0.5;entryDx=0;entryDy=0;" edge="1" parent="1" source="-aIehJj_cpJDDFJuIASW-2" target="-aIehJj_cpJDDFJuIASW-28">
          <mxGeometry width="50" height="50" relative="1" as="geometry">
            <mxPoint x="750" y="520" as="sourcePoint" />
            <mxPoint x="800" y="470" as="targetPoint" />
            <Array as="points">
              <mxPoint x="350" y="400" />
            </Array>
          </mxGeometry>
        </mxCell>
        <mxCell id="-aIehJj_cpJDDFJuIASW-30" value="" style="curved=1;endArrow=classic;html=1;rounded=0;exitX=0.5;exitY=1;exitDx=0;exitDy=0;entryX=0.5;entryY=0;entryDx=0;entryDy=0;" edge="1" parent="1" source="-aIehJj_cpJDDFJuIASW-28" target="-aIehJj_cpJDDFJuIASW-9">
          <mxGeometry width="50" height="50" relative="1" as="geometry">
            <mxPoint x="750" y="520" as="sourcePoint" />
            <mxPoint x="800" y="470" as="targetPoint" />
            <Array as="points">
              <mxPoint x="670" y="540" />
              <mxPoint x="562" y="540" />
            </Array>
          </mxGeometry>
        </mxCell>
        <mxCell id="-aIehJj_cpJDDFJuIASW-31" value="Afisare listă&amp;nbsp;&lt;br&gt;programări" style="ellipse;whiteSpace=wrap;html=1;aspect=fixed;" vertex="1" parent="1">
          <mxGeometry x="770" y="530" width="80" height="80" as="geometry" />
        </mxCell>
        <mxCell id="-aIehJj_cpJDDFJuIASW-32" value="" style="curved=1;endArrow=classic;html=1;rounded=0;exitX=0.5;exitY=1;exitDx=0;exitDy=0;entryX=0;entryY=0;entryDx=0;entryDy=0;" edge="1" parent="1" source="-aIehJj_cpJDDFJuIASW-2" target="-aIehJj_cpJDDFJuIASW-8">
          <mxGeometry width="50" height="50" relative="1" as="geometry">
            <mxPoint x="750" y="520" as="sourcePoint" />
            <mxPoint x="800" y="470" as="targetPoint" />
            <Array as="points">
              <mxPoint x="100" y="610" />
              <mxPoint x="300" y="640" />
              <mxPoint x="310" y="740" />
            </Array>
          </mxGeometry>
        </mxCell>
        <mxCell id="-aIehJj_cpJDDFJuIASW-33" value="" style="curved=1;endArrow=classic;html=1;rounded=0;exitX=1;exitY=0.5;exitDx=0;exitDy=0;entryX=0.378;entryY=0.97;entryDx=0;entryDy=0;entryPerimeter=0;" edge="1" parent="1" source="-aIehJj_cpJDDFJuIASW-8" target="-aIehJj_cpJDDFJuIASW-11">
          <mxGeometry width="50" height="50" relative="1" as="geometry">
            <mxPoint x="750" y="630" as="sourcePoint" />
            <mxPoint x="800" y="580" as="targetPoint" />
            <Array as="points">
              <mxPoint x="530" y="840" />
            </Array>
          </mxGeometry>
        </mxCell>
        <mxCell id="-aIehJj_cpJDDFJuIASW-34" value="" style="curved=1;endArrow=classic;html=1;rounded=0;entryX=1;entryY=1;entryDx=0;entryDy=0;" edge="1" parent="1" source="-aIehJj_cpJDDFJuIASW-11" target="-aIehJj_cpJDDFJuIASW-31">
          <mxGeometry width="50" height="50" relative="1" as="geometry">
            <mxPoint x="750" y="630" as="sourcePoint" />
            <mxPoint x="800" y="580" as="targetPoint" />
            <Array as="points">
              <mxPoint x="860" y="700" />
              <mxPoint x="870" y="660" />
            </Array>
          </mxGeometry>
        </mxCell>
        <mxCell id="-aIehJj_cpJDDFJuIASW-36" value="" style="curved=1;endArrow=classic;html=1;rounded=0;exitX=0.75;exitY=0;exitDx=0;exitDy=0;entryX=-0.042;entryY=0.356;entryDx=0;entryDy=0;entryPerimeter=0;" edge="1" parent="1" source="-aIehJj_cpJDDFJuIASW-2" target="-aIehJj_cpJDDFJuIASW-6">
          <mxGeometry width="50" height="50" relative="1" as="geometry">
            <mxPoint x="750" y="450" as="sourcePoint" />
            <mxPoint x="800" y="400" as="targetPoint" />
            <Array as="points">
              <mxPoint x="430" y="140" />
              <mxPoint x="640" y="110" />
            </Array>
          </mxGeometry>
        </mxCell>
        <mxCell id="-aIehJj_cpJDDFJuIASW-37" value="Caută clinică" style="ellipse;whiteSpace=wrap;html=1;aspect=fixed;" vertex="1" parent="1">
          <mxGeometry x="690" y="450" width="80" height="80" as="geometry" />
        </mxCell>
        <mxCell id="-aIehJj_cpJDDFJuIASW-38" value="" style="curved=1;endArrow=classic;html=1;rounded=0;exitX=0.5;exitY=1;exitDx=0;exitDy=0;entryX=1;entryY=0;entryDx=0;entryDy=0;" edge="1" parent="1" source="-aIehJj_cpJDDFJuIASW-6" target="-aIehJj_cpJDDFJuIASW-37">
          <mxGeometry width="50" height="50" relative="1" as="geometry">
            <mxPoint x="750" y="450" as="sourcePoint" />
            <mxPoint x="800" y="400" as="targetPoint" />
            <Array as="points">
              <mxPoint x="730" y="280" />
              <mxPoint x="750" y="400" />
            </Array>
          </mxGeometry>
        </mxCell>
        <mxCell id="-aIehJj_cpJDDFJuIASW-39" value="" style="curved=1;endArrow=classic;html=1;rounded=0;exitX=0.75;exitY=1;exitDx=0;exitDy=0;entryX=0;entryY=0;entryDx=0;entryDy=0;" edge="1" parent="1" source="-aIehJj_cpJDDFJuIASW-2" target="-aIehJj_cpJDDFJuIASW-4">
          <mxGeometry width="50" height="50" relative="1" as="geometry">
            <mxPoint x="750" y="450" as="sourcePoint" />
            <mxPoint x="800" y="400" as="targetPoint" />
            <Array as="points">
              <mxPoint x="420" y="742" />
              <mxPoint x="510" y="690" />
            </Array>
          </mxGeometry>
        </mxCell>
        <mxCell id="-aIehJj_cpJDDFJuIASW-40" value="" style="curved=1;endArrow=classic;html=1;rounded=0;exitX=0.5;exitY=1;exitDx=0;exitDy=0;entryX=1;entryY=0.5;entryDx=0;entryDy=0;" edge="1" parent="1" source="-aIehJj_cpJDDFJuIASW-3" target="-aIehJj_cpJDDFJuIASW-16">
          <mxGeometry width="50" height="50" relative="1" as="geometry">
            <mxPoint x="810" y="450" as="sourcePoint" />
            <mxPoint x="860" y="400" as="targetPoint" />
            <Array as="points">
              <mxPoint x="1490" y="630" />
              <mxPoint x="1450" y="680" />
            </Array>
          </mxGeometry>
        </mxCell>
        <mxCell id="-aIehJj_cpJDDFJuIASW-41" value="" style="curved=1;endArrow=classic;html=1;rounded=0;exitX=1;exitY=0.5;exitDx=0;exitDy=0;entryX=0.5;entryY=0;entryDx=0;entryDy=0;" edge="1" parent="1" source="-aIehJj_cpJDDFJuIASW-9" target="-aIehJj_cpJDDFJuIASW-47">
          <mxGeometry width="50" height="50" relative="1" as="geometry">
            <mxPoint x="810" y="450" as="sourcePoint" />
            <mxPoint x="860" y="400" as="targetPoint" />
            <Array as="points">
              <mxPoint x="840" y="640" />
              <mxPoint x="1010" y="540" />
            </Array>
          </mxGeometry>
        </mxCell>
        <mxCell id="-aIehJj_cpJDDFJuIASW-42" value="" style="curved=1;endArrow=classic;html=1;rounded=0;exitX=0;exitY=0.5;exitDx=0;exitDy=0;" edge="1" parent="1" source="-aIehJj_cpJDDFJuIASW-3" target="-aIehJj_cpJDDFJuIASW-28">
          <mxGeometry width="50" height="50" relative="1" as="geometry">
            <mxPoint x="810" y="450" as="sourcePoint" />
            <mxPoint x="860" y="400" as="targetPoint" />
            <Array as="points">
              <mxPoint x="1160" y="590" />
              <mxPoint x="860" y="450" />
              <mxPoint x="810" y="400" />
            </Array>
          </mxGeometry>
        </mxCell>
        <mxCell id="-aIehJj_cpJDDFJuIASW-45" value="" style="line;strokeWidth=1;fillColor=none;align=left;verticalAlign=middle;spacingTop=-1;spacingLeft=3;spacingRight=3;rotatable=0;labelPosition=right;points=[];portConstraint=eastwest;strokeColor=inherit;" vertex="1" parent="1">
          <mxGeometry x="1131" y="602" width="110" height="8" as="geometry" />
        </mxCell>
        <mxCell id="-aIehJj_cpJDDFJuIASW-46" value="" style="line;strokeWidth=1;fillColor=none;align=left;verticalAlign=middle;spacingTop=-1;spacingLeft=3;spacingRight=3;rotatable=0;labelPosition=right;points=[];portConstraint=eastwest;strokeColor=inherit;" vertex="1" parent="1">
          <mxGeometry x="1131" y="640" width="110" height="8" as="geometry" />
        </mxCell>
        <mxCell id="-aIehJj_cpJDDFJuIASW-47" value="ContactForm" style="text;html=1;strokeColor=none;fillColor=none;align=center;verticalAlign=middle;whiteSpace=wrap;rounded=0;" vertex="1" parent="1">
          <mxGeometry x="1156" y="610" width="60" height="30" as="geometry" />
        </mxCell>
        <mxCell id="-aIehJj_cpJDDFJuIASW-48" value="" style="curved=1;endArrow=classic;html=1;rounded=0;exitX=0.503;exitY=0.606;exitDx=0;exitDy=0;exitPerimeter=0;" edge="1" parent="1" source="-aIehJj_cpJDDFJuIASW-46">
          <mxGeometry width="50" height="50" relative="1" as="geometry">
            <mxPoint x="810" y="630" as="sourcePoint" />
            <mxPoint x="1240" y="730" as="targetPoint" />
            <Array as="points">
              <mxPoint x="1140" y="790" />
            </Array>
          </mxGeometry>
        </mxCell>
        <mxCell id="-aIehJj_cpJDDFJuIASW-50" value="" style="curved=1;endArrow=classic;html=1;rounded=0;exitX=0.5;exitY=1;exitDx=0;exitDy=0;entryX=1;entryY=0.5;entryDx=0;entryDy=0;" edge="1" parent="1" source="-aIehJj_cpJDDFJuIASW-3" target="-aIehJj_cpJDDFJuIASW-19">
          <mxGeometry width="50" height="50" relative="1" as="geometry">
            <mxPoint x="810" y="630" as="sourcePoint" />
            <mxPoint x="860" y="580" as="targetPoint" />
            <Array as="points">
              <mxPoint x="1490" y="740" />
              <mxPoint x="1350" y="850" />
            </Array>
          </mxGeometry>
        </mxCell>
        <mxCell id="-aIehJj_cpJDDFJuIASW-51" value="" style="curved=1;endArrow=classic;html=1;rounded=0;exitX=0;exitY=0;exitDx=0;exitDy=0;entryX=1;entryY=1;entryDx=0;entryDy=0;" edge="1" parent="1" source="-aIehJj_cpJDDFJuIASW-3" target="-aIehJj_cpJDDFJuIASW-12">
          <mxGeometry width="50" height="50" relative="1" as="geometry">
            <mxPoint x="850" y="450" as="sourcePoint" />
            <mxPoint x="900" y="400" as="targetPoint" />
            <Array as="points">
              <mxPoint x="1360" y="380" />
              <mxPoint x="1240" y="310" />
            </Array>
          </mxGeometry>
        </mxCell>
        <mxCell id="-aIehJj_cpJDDFJuIASW-52" value="" style="curved=1;endArrow=classic;html=1;rounded=0;entryX=1;entryY=1;entryDx=0;entryDy=0;exitX=0;exitY=1;exitDx=0;exitDy=0;" edge="1" parent="1" source="-aIehJj_cpJDDFJuIASW-3" target="-aIehJj_cpJDDFJuIASW-15">
          <mxGeometry width="50" height="50" relative="1" as="geometry">
            <mxPoint x="1470" y="560" as="sourcePoint" />
            <mxPoint x="900" y="400" as="targetPoint" />
            <Array as="points">
              <mxPoint x="1450" y="560" />
              <mxPoint x="1360" y="570" />
            </Array>
          </mxGeometry>
        </mxCell>
        <mxCell id="-aIehJj_cpJDDFJuIASW-53" value="" style="curved=1;endArrow=classic;html=1;rounded=0;exitX=0;exitY=0.25;exitDx=0;exitDy=0;entryX=1;entryY=1;entryDx=0;entryDy=0;" edge="1" parent="1" source="-aIehJj_cpJDDFJuIASW-3" target="-aIehJj_cpJDDFJuIASW-14">
          <mxGeometry width="50" height="50" relative="1" as="geometry">
            <mxPoint x="850" y="450" as="sourcePoint" />
            <mxPoint x="1070" y="320" as="targetPoint" />
            <Array as="points">
              <mxPoint x="1290" y="410" />
            </Array>
          </mxGeometry>
        </mxCell>
        <mxCell id="-aIehJj_cpJDDFJuIASW-54" value="" style="curved=1;endArrow=classic;html=1;rounded=0;exitX=0.25;exitY=1;exitDx=0;exitDy=0;entryX=1;entryY=0.5;entryDx=0;entryDy=0;" edge="1" parent="1" source="-aIehJj_cpJDDFJuIASW-3" target="-aIehJj_cpJDDFJuIASW-18">
          <mxGeometry width="50" height="50" relative="1" as="geometry">
            <mxPoint x="850" y="450" as="sourcePoint" />
            <mxPoint x="900" y="400" as="targetPoint" />
            <Array as="points">
              <mxPoint x="1260" y="690" />
              <mxPoint x="1170" y="720" />
            </Array>
          </mxGeometry>
        </mxCell>
        <mxCell id="-aIehJj_cpJDDFJuIASW-55" value="" style="curved=1;endArrow=classic;html=1;rounded=0;exitX=0.25;exitY=0;exitDx=0;exitDy=0;entryX=1.036;entryY=0.66;entryDx=0;entryDy=0;entryPerimeter=0;" edge="1" parent="1" source="-aIehJj_cpJDDFJuIASW-3" target="-aIehJj_cpJDDFJuIASW-13">
          <mxGeometry width="50" height="50" relative="1" as="geometry">
            <mxPoint x="850" y="450" as="sourcePoint" />
            <mxPoint x="1040" y="410" as="targetPoint" />
            <Array as="points">
              <mxPoint x="1180" y="389" />
              <mxPoint x="1090" y="460" />
            </Array>
          </mxGeometry>
        </mxCell>
        <mxCell id="-aIehJj_cpJDDFJuIASW-56" value="" style="line;strokeWidth=1;fillColor=none;align=left;verticalAlign=middle;spacingTop=-1;spacingLeft=3;spacingRight=3;rotatable=0;labelPosition=right;points=[];portConstraint=eastwest;strokeColor=inherit;" vertex="1" parent="1">
          <mxGeometry x="600" y="269" width="110" height="8" as="geometry" />
        </mxCell>
        <mxCell id="-aIehJj_cpJDDFJuIASW-57" value="" style="line;strokeWidth=1;fillColor=none;align=left;verticalAlign=middle;spacingTop=-1;spacingLeft=3;spacingRight=3;rotatable=0;labelPosition=right;points=[];portConstraint=eastwest;strokeColor=inherit;" vertex="1" parent="1">
          <mxGeometry x="605" y="309" width="110" height="8" as="geometry" />
        </mxCell>
        <mxCell id="-aIehJj_cpJDDFJuIASW-58" value="Clinici" style="text;html=1;align=center;verticalAlign=middle;resizable=0;points=[];autosize=1;strokeColor=none;fillColor=none;" vertex="1" parent="1">
          <mxGeometry x="630" y="279" width="60" height="30" as="geometry" />
        </mxCell>
        <mxCell id="-aIehJj_cpJDDFJuIASW-60" value="" style="line;strokeWidth=1;fillColor=none;align=left;verticalAlign=middle;spacingTop=-1;spacingLeft=3;spacingRight=3;rotatable=0;labelPosition=right;points=[];portConstraint=eastwest;strokeColor=inherit;" vertex="1" parent="1">
          <mxGeometry x="810" y="250" width="110" height="8" as="geometry" />
        </mxCell>
        <mxCell id="-aIehJj_cpJDDFJuIASW-61" value="" style="line;strokeWidth=1;fillColor=none;align=left;verticalAlign=middle;spacingTop=-1;spacingLeft=3;spacingRight=3;rotatable=0;labelPosition=right;points=[];portConstraint=eastwest;strokeColor=inherit;" vertex="1" parent="1">
          <mxGeometry x="810" y="290" width="110" height="8" as="geometry" />
        </mxCell>
        <mxCell id="-aIehJj_cpJDDFJuIASW-62" value="Doctori" style="text;html=1;align=center;verticalAlign=middle;resizable=0;points=[];autosize=1;strokeColor=none;fillColor=none;" vertex="1" parent="1">
          <mxGeometry x="835" y="258" width="60" height="30" as="geometry" />
        </mxCell>
        <mxCell id="-aIehJj_cpJDDFJuIASW-63" value="" style="line;strokeWidth=1;fillColor=none;align=left;verticalAlign=middle;spacingTop=-1;spacingLeft=3;spacingRight=3;rotatable=0;labelPosition=right;points=[];portConstraint=eastwest;strokeColor=inherit;" vertex="1" parent="1">
          <mxGeometry x="1000" y="150" width="110" height="8" as="geometry" />
        </mxCell>
        <mxCell id="-aIehJj_cpJDDFJuIASW-64" value="" style="line;strokeWidth=1;fillColor=none;align=left;verticalAlign=middle;spacingTop=-1;spacingLeft=3;spacingRight=3;rotatable=0;labelPosition=right;points=[];portConstraint=eastwest;strokeColor=inherit;" vertex="1" parent="1">
          <mxGeometry x="1000" y="110" width="110" height="20" as="geometry" />
        </mxCell>
        <mxCell id="-aIehJj_cpJDDFJuIASW-65" value="Categorie donații" style="text;html=1;align=center;verticalAlign=middle;resizable=0;points=[];autosize=1;strokeColor=none;fillColor=none;" vertex="1" parent="1">
          <mxGeometry x="1000" y="120" width="110" height="30" as="geometry" />
        </mxCell>
        <mxCell id="-aIehJj_cpJDDFJuIASW-66" value="" style="line;strokeWidth=1;fillColor=none;align=left;verticalAlign=middle;spacingTop=-1;spacingLeft=3;spacingRight=3;rotatable=0;labelPosition=right;points=[];portConstraint=eastwest;strokeColor=inherit;" vertex="1" parent="1">
          <mxGeometry x="810" y="802" width="110" height="8" as="geometry" />
        </mxCell>
        <mxCell id="-aIehJj_cpJDDFJuIASW-67" value="" style="line;strokeWidth=1;fillColor=none;align=left;verticalAlign=middle;spacingTop=-1;spacingLeft=3;spacingRight=3;rotatable=0;labelPosition=right;points=[];portConstraint=eastwest;strokeColor=inherit;" vertex="1" parent="1">
          <mxGeometry x="810" y="762" width="110" height="8" as="geometry" />
        </mxCell>
        <mxCell id="-aIehJj_cpJDDFJuIASW-68" value="Adresă" style="text;html=1;align=center;verticalAlign=middle;resizable=0;points=[];autosize=1;strokeColor=none;fillColor=none;" vertex="1" parent="1">
          <mxGeometry x="835" y="772" width="60" height="30" as="geometry" />
        </mxCell>
        <mxCell id="-aIehJj_cpJDDFJuIASW-69" value="" style="line;strokeWidth=1;fillColor=none;align=left;verticalAlign=middle;spacingTop=-1;spacingLeft=3;spacingRight=3;rotatable=0;labelPosition=right;points=[];portConstraint=eastwest;strokeColor=inherit;" vertex="1" parent="1">
          <mxGeometry x="1080" y="516" width="110" height="8" as="geometry" />
        </mxCell>
        <mxCell id="-aIehJj_cpJDDFJuIASW-70" value="" style="line;strokeWidth=1;fillColor=none;align=left;verticalAlign=middle;spacingTop=-1;spacingLeft=3;spacingRight=3;rotatable=0;labelPosition=right;points=[];portConstraint=eastwest;strokeColor=inherit;" vertex="1" parent="1">
          <mxGeometry x="1080" y="480" width="110" height="8" as="geometry" />
        </mxCell>
        <mxCell id="-aIehJj_cpJDDFJuIASW-71" value="Membrii" style="text;html=1;align=center;verticalAlign=middle;resizable=0;points=[];autosize=1;strokeColor=none;fillColor=none;" vertex="1" parent="1">
          <mxGeometry x="1100" y="490" width="70" height="30" as="geometry" />
        </mxCell>
        <mxCell id="-aIehJj_cpJDDFJuIASW-72" value="" style="line;strokeWidth=1;fillColor=none;align=left;verticalAlign=middle;spacingTop=-1;spacingLeft=3;spacingRight=3;rotatable=0;labelPosition=right;points=[];portConstraint=eastwest;strokeColor=inherit;" vertex="1" parent="1">
          <mxGeometry x="413" y="512" width="110" height="8" as="geometry" />
        </mxCell>
        <mxCell id="-aIehJj_cpJDDFJuIASW-73" value="" style="line;strokeWidth=1;fillColor=none;align=left;verticalAlign=middle;spacingTop=-1;spacingLeft=3;spacingRight=3;rotatable=0;labelPosition=right;points=[];portConstraint=eastwest;strokeColor=inherit;" vertex="1" parent="1">
          <mxGeometry x="413" y="472" width="110" height="8" as="geometry" />
        </mxCell>
        <mxCell id="-aIehJj_cpJDDFJuIASW-74" value="Programări" style="text;html=1;align=center;verticalAlign=middle;resizable=0;points=[];autosize=1;strokeColor=none;fillColor=none;" vertex="1" parent="1">
          <mxGeometry x="428" y="482" width="80" height="30" as="geometry" />
        </mxCell>
        <mxCell id="-aIehJj_cpJDDFJuIASW-75" value="" style="curved=1;endArrow=classic;html=1;rounded=0;entryX=0.5;entryY=0;entryDx=0;entryDy=0;" edge="1" parent="1" target="-aIehJj_cpJDDFJuIASW-15">
          <mxGeometry width="50" height="50" relative="1" as="geometry">
            <mxPoint x="1170" y="480" as="sourcePoint" />
            <mxPoint x="870" y="400" as="targetPoint" />
            <Array as="points">
              <mxPoint x="1160" y="450" />
            </Array>
          </mxGeometry>
        </mxCell>
        <mxCell id="-aIehJj_cpJDDFJuIASW-76" value="" style="curved=1;endArrow=classic;html=1;rounded=0;exitX=0;exitY=0.5;exitDx=0;exitDy=0;" edge="1" parent="1" source="-aIehJj_cpJDDFJuIASW-18" target="-aIehJj_cpJDDFJuIASW-67">
          <mxGeometry width="50" height="50" relative="1" as="geometry">
            <mxPoint x="820" y="450" as="sourcePoint" />
            <mxPoint x="870" y="400" as="targetPoint" />
            <Array as="points">
              <mxPoint x="880" y="660" />
            </Array>
          </mxGeometry>
        </mxCell>
        <mxCell id="-aIehJj_cpJDDFJuIASW-77" value="" style="curved=1;endArrow=classic;html=1;rounded=0;exitX=0.644;exitY=1.114;exitDx=0;exitDy=0;exitPerimeter=0;" edge="1" parent="1" source="-aIehJj_cpJDDFJuIASW-66" target="-aIehJj_cpJDDFJuIASW-4">
          <mxGeometry width="50" height="50" relative="1" as="geometry">
            <mxPoint x="820" y="450" as="sourcePoint" />
            <mxPoint x="870" y="400" as="targetPoint" />
            <Array as="points">
              <mxPoint x="710" y="860" />
            </Array>
          </mxGeometry>
        </mxCell>
        <mxCell id="-aIehJj_cpJDDFJuIASW-78" value="" style="curved=1;endArrow=classic;html=1;rounded=0;exitX=1;exitY=1;exitDx=0;exitDy=0;" edge="1" parent="1" source="-aIehJj_cpJDDFJuIASW-5" target="-aIehJj_cpJDDFJuIASW-65">
          <mxGeometry width="50" height="50" relative="1" as="geometry">
            <mxPoint x="820" y="570" as="sourcePoint" />
            <mxPoint x="870" y="520" as="targetPoint" />
            <Array as="points">
              <mxPoint x="810" y="100" />
              <mxPoint x="890" y="200" />
            </Array>
          </mxGeometry>
        </mxCell>
        <mxCell id="-aIehJj_cpJDDFJuIASW-79" value="" style="curved=1;endArrow=classic;html=1;rounded=0;exitX=1;exitY=0.5;exitDx=0;exitDy=0;entryX=0.581;entryY=1.333;entryDx=0;entryDy=0;entryPerimeter=0;" edge="1" parent="1" source="-aIehJj_cpJDDFJuIASW-14" target="-aIehJj_cpJDDFJuIASW-65">
          <mxGeometry width="50" height="50" relative="1" as="geometry">
            <mxPoint x="820" y="390" as="sourcePoint" />
            <mxPoint x="870" y="340" as="targetPoint" />
            <Array as="points">
              <mxPoint x="1070" y="230" />
              <mxPoint x="1110" y="200" />
            </Array>
          </mxGeometry>
        </mxCell>
        <mxCell id="-aIehJj_cpJDDFJuIASW-80" value="" style="curved=1;endArrow=classic;html=1;rounded=0;exitX=0.5;exitY=1;exitDx=0;exitDy=0;entryX=0.878;entryY=0.314;entryDx=0;entryDy=0;entryPerimeter=0;" edge="1" parent="1" source="-aIehJj_cpJDDFJuIASW-12" target="-aIehJj_cpJDDFJuIASW-56">
          <mxGeometry width="50" height="50" relative="1" as="geometry">
            <mxPoint x="820" y="570" as="sourcePoint" />
            <mxPoint x="870" y="520" as="targetPoint" />
            <Array as="points">
              <mxPoint x="990" y="330" />
              <mxPoint x="840" y="320" />
              <mxPoint x="770" y="320" />
            </Array>
          </mxGeometry>
        </mxCell>
        <mxCell id="-aIehJj_cpJDDFJuIASW-81" value="" style="curved=1;endArrow=classic;html=1;rounded=0;exitX=0.46;exitY=0.314;exitDx=0;exitDy=0;exitPerimeter=0;entryX=0;entryY=1;entryDx=0;entryDy=0;" edge="1" parent="1" source="-aIehJj_cpJDDFJuIASW-56" target="-aIehJj_cpJDDFJuIASW-6">
          <mxGeometry width="50" height="50" relative="1" as="geometry">
            <mxPoint x="820" y="570" as="sourcePoint" />
            <mxPoint x="870" y="520" as="targetPoint" />
            <Array as="points">
              <mxPoint x="660" y="240" />
              <mxPoint x="690" y="220" />
            </Array>
          </mxGeometry>
        </mxCell>
        <mxCell id="-aIehJj_cpJDDFJuIASW-82" value="" style="curved=1;endArrow=classic;html=1;rounded=0;exitX=0.28;exitY=0.205;exitDx=0;exitDy=0;exitPerimeter=0;entryX=0.5;entryY=1;entryDx=0;entryDy=0;" edge="1" parent="1" source="-aIehJj_cpJDDFJuIASW-67" target="-aIehJj_cpJDDFJuIASW-37">
          <mxGeometry width="50" height="50" relative="1" as="geometry">
            <mxPoint x="820" y="570" as="sourcePoint" />
            <mxPoint x="870" y="520" as="targetPoint" />
            <Array as="points">
              <mxPoint x="810" y="680" />
              <mxPoint x="760" y="620" />
              <mxPoint x="710" y="580" />
            </Array>
          </mxGeometry>
        </mxCell>
        <mxCell id="-aIehJj_cpJDDFJuIASW-83" value="" style="curved=1;endArrow=classic;html=1;rounded=0;exitX=0.148;exitY=0.417;exitDx=0;exitDy=0;exitPerimeter=0;entryX=1.022;entryY=0.193;entryDx=0;entryDy=0;entryPerimeter=0;" edge="1" parent="1" source="-aIehJj_cpJDDFJuIASW-61" target="-aIehJj_cpJDDFJuIASW-37">
          <mxGeometry width="50" height="50" relative="1" as="geometry">
            <mxPoint x="820" y="390" as="sourcePoint" />
            <mxPoint x="870" y="340" as="targetPoint" />
            <Array as="points">
              <mxPoint x="790" y="360" />
            </Array>
          </mxGeometry>
        </mxCell>
        <mxCell id="-aIehJj_cpJDDFJuIASW-84" value="" style="curved=1;endArrow=classic;html=1;rounded=0;exitX=0;exitY=1;exitDx=0;exitDy=0;entryX=0.38;entryY=1.023;entryDx=0;entryDy=0;entryPerimeter=0;" edge="1" parent="1" source="-aIehJj_cpJDDFJuIASW-13" target="-aIehJj_cpJDDFJuIASW-61">
          <mxGeometry width="50" height="50" relative="1" as="geometry">
            <mxPoint x="820" y="390" as="sourcePoint" />
            <mxPoint x="870" y="340" as="targetPoint" />
            <Array as="points">
              <mxPoint x="850" y="410" />
              <mxPoint x="820" y="340" />
            </Array>
          </mxGeometry>
        </mxCell>
        <mxCell id="-aIehJj_cpJDDFJuIASW-85" value="" style="curved=1;endArrow=classic;html=1;rounded=0;exitX=1;exitY=0.5;exitDx=0;exitDy=0;entryX=0.5;entryY=0;entryDx=0;entryDy=0;" edge="1" parent="1" source="-aIehJj_cpJDDFJuIASW-6" target="-aIehJj_cpJDDFJuIASW-12">
          <mxGeometry width="50" height="50" relative="1" as="geometry">
            <mxPoint x="820" y="390" as="sourcePoint" />
            <mxPoint x="870" y="340" as="targetPoint" />
            <Array as="points">
              <mxPoint x="910" y="70" />
            </Array>
          </mxGeometry>
        </mxCell>
        <mxCell id="-aIehJj_cpJDDFJuIASW-86" value="" style="curved=1;endArrow=classic;html=1;rounded=0;exitX=0;exitY=1;exitDx=0;exitDy=0;entryX=0.661;entryY=0.091;entryDx=0;entryDy=0;entryPerimeter=0;" edge="1" parent="1" source="-aIehJj_cpJDDFJuIASW-19" target="-aIehJj_cpJDDFJuIASW-72">
          <mxGeometry width="50" height="50" relative="1" as="geometry">
            <mxPoint x="820" y="570" as="sourcePoint" />
            <mxPoint x="870" y="520" as="targetPoint" />
            <Array as="points">
              <mxPoint x="890" y="850" />
              <mxPoint x="480" y="900" />
            </Array>
          </mxGeometry>
        </mxCell>
        <mxCell id="-aIehJj_cpJDDFJuIASW-89" value="" style="curved=1;endArrow=classic;html=1;rounded=0;exitX=0.645;exitY=-0.188;exitDx=0;exitDy=0;exitPerimeter=0;entryX=-0.039;entryY=0.693;entryDx=0;entryDy=0;entryPerimeter=0;" edge="1" parent="1" source="-aIehJj_cpJDDFJuIASW-74" target="-aIehJj_cpJDDFJuIASW-31">
          <mxGeometry width="50" height="50" relative="1" as="geometry">
            <mxPoint x="820" y="570" as="sourcePoint" />
            <mxPoint x="870" y="520" as="targetPoint" />
            <Array as="points">
              <mxPoint x="580" y="410" />
              <mxPoint x="610" y="570" />
              <mxPoint x="670" y="600" />
            </Array>
          </mxGeometry>
        </mxCell>
        <mxCell id="-aIehJj_cpJDDFJuIASW-90" value="" style="curved=1;endArrow=classic;html=1;rounded=0;exitX=0.757;exitY=-0.034;exitDx=0;exitDy=0;exitPerimeter=0;entryX=0.5;entryY=0;entryDx=0;entryDy=0;" edge="1" parent="1" source="-aIehJj_cpJDDFJuIASW-19" target="-aIehJj_cpJDDFJuIASW-31">
          <mxGeometry width="50" height="50" relative="1" as="geometry">
            <mxPoint x="820" y="570" as="sourcePoint" />
            <mxPoint x="870" y="520" as="targetPoint" />
            <Array as="points">
              <mxPoint x="1000" y="540" />
              <mxPoint x="820" y="520" />
            </Array>
          </mxGeometry>
        </mxCell>
        <mxCell id="-aIehJj_cpJDDFJuIASW-91" value="Inrodu medic" style="text;html=1;align=center;verticalAlign=middle;resizable=0;points=[];autosize=1;strokeColor=none;fillColor=none;" vertex="1" parent="1">
          <mxGeometry x="800" y="320" width="90" height="30" as="geometry" />
        </mxCell>
        <mxCell id="-aIehJj_cpJDDFJuIASW-92" value="Actualizare adese" style="text;html=1;align=center;verticalAlign=middle;resizable=0;points=[];autosize=1;strokeColor=none;fillColor=none;" vertex="1" parent="1">
          <mxGeometry x="860" y="730" width="120" height="30" as="geometry" />
        </mxCell>
        <mxCell id="-aIehJj_cpJDDFJuIASW-93" value="Actualizare programari" style="text;html=1;align=center;verticalAlign=middle;resizable=0;points=[];autosize=1;strokeColor=none;fillColor=none;" vertex="1" parent="1">
          <mxGeometry x="650" y="878" width="140" height="30" as="geometry" />
        </mxCell>
        <mxCell id="-aIehJj_cpJDDFJuIASW-94" value="Actualizare donatii" style="text;html=1;align=center;verticalAlign=middle;resizable=0;points=[];autosize=1;strokeColor=none;fillColor=none;" vertex="1" parent="1">
          <mxGeometry x="1036" y="185" width="120" height="30" as="geometry" />
        </mxCell>
        <mxCell id="-aIehJj_cpJDDFJuIASW-96" value="" style="curved=1;endArrow=classic;html=1;rounded=0;exitX=0.071;exitY=1.023;exitDx=0;exitDy=0;exitPerimeter=0;entryX=0.5;entryY=0;entryDx=0;entryDy=0;" edge="1" parent="1" source="-aIehJj_cpJDDFJuIASW-61" target="-aIehJj_cpJDDFJuIASW-7">
          <mxGeometry width="50" height="50" relative="1" as="geometry">
            <mxPoint x="820" y="570" as="sourcePoint" />
            <mxPoint x="870" y="520" as="targetPoint" />
            <Array as="points">
              <mxPoint x="590" y="350" />
              <mxPoint x="370" y="370" />
            </Array>
          </mxGeometry>
        </mxCell>
        <mxCell id="-aIehJj_cpJDDFJuIASW-97" value="" style="curved=1;endArrow=classic;html=1;rounded=0;exitX=0.5;exitY=0;exitDx=0;exitDy=0;" edge="1" parent="1" source="-aIehJj_cpJDDFJuIASW-12">
          <mxGeometry width="50" height="50" relative="1" as="geometry">
            <mxPoint x="1200" y="110" as="sourcePoint" />
            <mxPoint x="676" y="270" as="targetPoint" />
            <Array as="points">
              <mxPoint x="930" y="60" />
              <mxPoint x="840" y="150" />
              <mxPoint x="676" y="130" />
            </Array>
          </mxGeometry>
        </mxCell>
        <mxCell id="-aIehJj_cpJDDFJuIASW-99" value="Actualizare clinici" style="text;html=1;align=center;verticalAlign=middle;resizable=0;points=[];autosize=1;strokeColor=none;fillColor=none;" vertex="1" parent="1">
          <mxGeometry x="880" y="58" width="120" height="30" as="geometry" />
        </mxCell>
        <mxCell id="-aIehJj_cpJDDFJuIASW-101" value="Programari transmise" style="text;html=1;align=center;verticalAlign=middle;resizable=0;points=[];autosize=1;strokeColor=none;fillColor=none;" vertex="1" parent="1">
          <mxGeometry x="510" y="450" width="140" height="30" as="geometry" />
        </mxCell>
        <mxCell id="-aIehJj_cpJDDFJuIASW-102" value="Selectare opțiuni de &lt;br&gt;editare clinica" style="text;html=1;align=center;verticalAlign=middle;resizable=0;points=[];autosize=1;strokeColor=none;fillColor=none;" vertex="1" parent="1">
          <mxGeometry x="1260" y="298" width="130" height="40" as="geometry" />
        </mxCell>
        <mxCell id="-aIehJj_cpJDDFJuIASW-103" value="Select vizualizare" style="text;html=1;align=center;verticalAlign=middle;resizable=0;points=[];autosize=1;strokeColor=none;fillColor=none;" vertex="1" parent="1">
          <mxGeometry x="1340" y="530" width="120" height="30" as="geometry" />
        </mxCell>
        <mxCell id="-aIehJj_cpJDDFJuIASW-107" value="Select vizualizare &lt;br&gt;contact form" style="text;html=1;align=center;verticalAlign=middle;resizable=0;points=[];autosize=1;strokeColor=none;fillColor=none;" vertex="1" parent="1">
          <mxGeometry x="1330" y="650" width="120" height="40" as="geometry" />
        </mxCell>
        <mxCell id="-aIehJj_cpJDDFJuIASW-108" value="Selecteza proprietati &lt;br&gt;de modificare programari" style="text;html=1;align=center;verticalAlign=middle;resizable=0;points=[];autosize=1;strokeColor=none;fillColor=none;" vertex="1" parent="1">
          <mxGeometry x="1220" y="780" width="160" height="40" as="geometry" />
        </mxCell>
        <mxCell id="-aIehJj_cpJDDFJuIASW-109" value="Selecteaza optiune &lt;br&gt;modificare medici" style="text;html=1;align=center;verticalAlign=middle;resizable=0;points=[];autosize=1;strokeColor=none;fillColor=none;" vertex="1" parent="1">
          <mxGeometry x="1020" y="380" width="130" height="40" as="geometry" />
        </mxCell>
        <mxCell id="-aIehJj_cpJDDFJuIASW-110" value="Selecteaza proprietate&lt;br&gt;de modificare adresa" style="text;html=1;align=center;verticalAlign=middle;resizable=0;points=[];autosize=1;strokeColor=none;fillColor=none;" vertex="1" parent="1">
          <mxGeometry x="1270" y="584.5" width="140" height="40" as="geometry" />
        </mxCell>
        <mxCell id="-aIehJj_cpJDDFJuIASW-111" value="Afisare pagina&amp;nbsp;" style="text;html=1;align=center;verticalAlign=middle;resizable=0;points=[];autosize=1;strokeColor=none;fillColor=none;" vertex="1" parent="1">
          <mxGeometry x="910" y="460" width="100" height="30" as="geometry" />
        </mxCell>
        <mxCell id="-aIehJj_cpJDDFJuIASW-112" value="Selecteaza optiune&amp;nbsp;&lt;br&gt;de modificare categorii" style="text;html=1;align=center;verticalAlign=middle;resizable=0;points=[];autosize=1;strokeColor=none;fillColor=none;" vertex="1" parent="1">
          <mxGeometry x="1110" y="298" width="140" height="40" as="geometry" />
        </mxCell>
        <mxCell id="-aIehJj_cpJDDFJuIASW-113" value="Clinica transmisa" style="text;html=1;align=center;verticalAlign=middle;resizable=0;points=[];autosize=1;strokeColor=none;fillColor=none;" vertex="1" parent="1">
          <mxGeometry x="950" y="279" width="110" height="30" as="geometry" />
        </mxCell>
        <mxCell id="-aIehJj_cpJDDFJuIASW-115" value="Afisare membrii&lt;br&gt;" style="text;html=1;align=center;verticalAlign=middle;resizable=0;points=[];autosize=1;strokeColor=none;fillColor=none;" vertex="1" parent="1">
          <mxGeometry x="1165" y="418" width="110" height="30" as="geometry" />
        </mxCell>
        <mxCell id="-aIehJj_cpJDDFJuIASW-116" value="Actuaizare&amp;nbsp;&lt;br&gt;întrebări&lt;br&gt;" style="text;html=1;align=center;verticalAlign=middle;resizable=0;points=[];autosize=1;strokeColor=none;fillColor=none;" vertex="1" parent="1">
          <mxGeometry x="970" y="533" width="80" height="40" as="geometry" />
        </mxCell>
        <mxCell id="-aIehJj_cpJDDFJuIASW-117" value="Actualizare contact" style="text;html=1;align=center;verticalAlign=middle;resizable=0;points=[];autosize=1;strokeColor=none;fillColor=none;" vertex="1" parent="1">
          <mxGeometry x="1131" y="655" width="120" height="30" as="geometry" />
        </mxCell>
        <mxCell id="-aIehJj_cpJDDFJuIASW-118" value="Afisare adresa&lt;br&gt;" style="text;html=1;align=center;verticalAlign=middle;resizable=0;points=[];autosize=1;strokeColor=none;fillColor=none;" vertex="1" parent="1">
          <mxGeometry x="700" y="802" width="100" height="30" as="geometry" />
        </mxCell>
        <mxCell id="-aIehJj_cpJDDFJuIASW-119" value="Afiseaza clinica" style="text;html=1;align=center;verticalAlign=middle;resizable=0;points=[];autosize=1;strokeColor=none;fillColor=none;" vertex="1" parent="1">
          <mxGeometry x="675" y="338" width="110" height="30" as="geometry" />
        </mxCell>
        <mxCell id="-aIehJj_cpJDDFJuIASW-120" value="Afisare clinica" style="text;html=1;align=center;verticalAlign=middle;resizable=0;points=[];autosize=1;strokeColor=none;fillColor=none;" vertex="1" parent="1">
          <mxGeometry x="580" y="239" width="100" height="30" as="geometry" />
        </mxCell>
        <mxCell id="-aIehJj_cpJDDFJuIASW-121" value="Afisare donatii&lt;br&gt;" style="text;html=1;align=center;verticalAlign=middle;resizable=0;points=[];autosize=1;strokeColor=none;fillColor=none;" vertex="1" parent="1">
          <mxGeometry x="880" y="148" width="100" height="30" as="geometry" />
        </mxCell>
        <mxCell id="-aIehJj_cpJDDFJuIASW-123" value="Afisare programare" style="text;html=1;align=center;verticalAlign=middle;resizable=0;points=[];autosize=1;strokeColor=none;fillColor=none;" vertex="1" parent="1">
          <mxGeometry x="965" y="618" width="130" height="30" as="geometry" />
        </mxCell>
        <mxCell id="-aIehJj_cpJDDFJuIASW-124" value="Transmite clinica&amp;nbsp;" style="text;html=1;align=center;verticalAlign=middle;resizable=0;points=[];autosize=1;strokeColor=none;fillColor=none;" vertex="1" parent="1">
          <mxGeometry x="730" y="640" width="120" height="30" as="geometry" />
        </mxCell>
        <mxCell id="-aIehJj_cpJDDFJuIASW-126" value="Trimite intrebare&lt;br&gt;" style="text;html=1;align=center;verticalAlign=middle;resizable=0;points=[];autosize=1;strokeColor=none;fillColor=none;" vertex="1" parent="1">
          <mxGeometry x="600" y="530" width="110" height="30" as="geometry" />
        </mxCell>
        <mxCell id="-aIehJj_cpJDDFJuIASW-127" value="Transmite medic" style="text;html=1;align=center;verticalAlign=middle;resizable=0;points=[];autosize=1;strokeColor=none;fillColor=none;" vertex="1" parent="1">
          <mxGeometry x="490" y="320" width="110" height="30" as="geometry" />
        </mxCell>
        <mxCell id="-aIehJj_cpJDDFJuIASW-128" value="Afiseaza clinica in&amp;nbsp;&lt;br&gt;functie de medic" style="text;html=1;align=center;verticalAlign=middle;resizable=0;points=[];autosize=1;strokeColor=none;fillColor=none;" vertex="1" parent="1">
          <mxGeometry x="740" y="410" width="120" height="40" as="geometry" />
        </mxCell>
        <mxCell id="-aIehJj_cpJDDFJuIASW-130" value="Adugare si editare&amp;nbsp;&lt;br&gt;programare" style="text;html=1;align=center;verticalAlign=middle;resizable=0;points=[];autosize=1;strokeColor=none;fillColor=none;" vertex="1" parent="1">
          <mxGeometry x="220" y="670" width="120" height="40" as="geometry" />
        </mxCell>
        <mxCell id="-aIehJj_cpJDDFJuIASW-131" value="Medici" style="text;html=1;align=center;verticalAlign=middle;resizable=0;points=[];autosize=1;strokeColor=none;fillColor=none;" vertex="1" parent="1">
          <mxGeometry x="280" y="528" width="60" height="30" as="geometry" />
        </mxCell>
        <mxCell id="-aIehJj_cpJDDFJuIASW-132" value="Adrese" style="text;html=1;align=center;verticalAlign=middle;resizable=0;points=[];autosize=1;strokeColor=none;fillColor=none;" vertex="1" parent="1">
          <mxGeometry x="370" y="680" width="60" height="30" as="geometry" />
        </mxCell>
        <mxCell id="-aIehJj_cpJDDFJuIASW-133" value="Selecteaza&amp;nbsp;&lt;br&gt;vizualizare categorii" style="text;html=1;align=center;verticalAlign=middle;resizable=0;points=[];autosize=1;strokeColor=none;fillColor=none;" vertex="1" parent="1">
          <mxGeometry x="325" y="279" width="130" height="40" as="geometry" />
        </mxCell>
        <mxCell id="-aIehJj_cpJDDFJuIASW-134" value="Select clinica&amp;nbsp;" style="text;html=1;align=center;verticalAlign=middle;resizable=0;points=[];autosize=1;strokeColor=none;fillColor=none;" vertex="1" parent="1">
          <mxGeometry x="370" y="148" width="100" height="30" as="geometry" />
        </mxCell>
        <mxCell id="-aIehJj_cpJDDFJuIASW-135" value="Compune mesaj" style="text;html=1;align=center;verticalAlign=middle;resizable=0;points=[];autosize=1;strokeColor=none;fillColor=none;" vertex="1" parent="1">
          <mxGeometry x="455" y="368" width="110" height="30" as="geometry" />
        </mxCell>
      </root>
    </mxGraphModel>
  </diagram>
</mxfile>
